<svg xmlns="http://www.w3.org/2000/svg" viewBox="0 0 512 512">
  <defs>
    <style>
      .chip-bg { fill: #3d3d3d; }
      .chip-contact { fill: #f4c542; }
    </style>
  </defs>
  <rect class="chip-bg" x="16" y="64" width="480" height="384" rx="48"/>
  <rect class="chip-contact" x="18" y="80" width="138" height="56" rx="4"/>
  <rect class="chip-contact" x="18" y="144" width="138" height="64" rx="4"/>
  <rect class="chip-contact" x="18" y="216" width="138" height="80" rx="4"/>
  <rect class="chip-contact" x="18" y="304" width="138" height="80" rx="4"/>
  <rect class="chip-contact" x="18" y="392" width="138" height="48" rx="4"/>
  <rect class="chip-contact" x="356" y="80" width="138" height="56" rx="4"/>
  <rect class="chip-contact" x="356" y="144" width="138" height="64" rx="4"/>
  <rect class="chip-contact" x="356" y="224" width="138" height="72" rx="4"/>
  <rect class="chip-contact" x="356" y="304" width="138" height="80" rx="4"/>
  <rect class="chip-contact" x="356" y="392" width="138" height="48" rx="4"/>
  <rect class="chip-contact" x="164" y="136" width="184" height="240" rx="8"/>
</svg>
