<svg xmlns="http://www.w3.org/2000/svg" viewBox="0 0 24 24" fill="white">
  <path d="M12 2C6.48 2 2 6.48 2 12s4.48 10 10 10 10-4.48 10-10S17.52 2 12 2zm-1 17.93c-3.95-.49-7-3.85-7-7.93 0-.62.08-1.21.21-1.79L9 15v1c0 1.1.9 2 2 2v1.93zm6.9-2.54c-.26-.81-1-1.39-1.9-1.39h-1v-3c0-.55-.45-1-1-1H8v-2h2c.55 0 1-.45 1-1V7h2c1.1 0 2-.9 2-2v-.41c2.93 1.19 5 4.06 5 7.41 0 2.08-.8 3.97-2.1 5.39z"/>
  <path d="M8.03 12.03c-.19.58-.31 1.19-.31 1.84 0 1.32.47 2.53 1.26 3.47M10.5 9.5c-.83.83-1.34 1.98-1.34 3.25 0 1.27.51 2.42 1.34 3.25M13 7c-1.38 1.38-2.23 3.28-2.23 5.39 0 2.11.85 4.01 2.23 5.39" fill="none" stroke="white" stroke-width="1.5" stroke-linecap="round"/>
</svg>
